{"title":"WWE Monday Night Raw - 23rd Aug 2010 - Xvid ][VAMPIRE ROCK's][B","uid":5786174,"size":509353984,"categoryP":"video","categoryS":"tv_shows","magnet":"?xt=urn:btih:d46618367be825dfbbb8e0a0cba3553f97d2ff99&amp;dn=WWE+Monday+Night+Raw+-+23rd+Aug+2010+-+Xvid+%5D%5BVAMPIRE+ROCK%5C%27s%5D%5BB&amp;tr=udp%3A%2F%2Ftracker.openbittorrent.com%3A80&amp;tr=udp%3A%2F%2Fopen.demonii.com%3A1337&amp;tr=udp%3A%2F%2Ftracker.coppersurfer.tk%3A6969&amp;tr=udp%3A%2F%2Fexodus.desync.com%3A6969","seeders":0,"leechers":0,"uploader":"Vamp111","files":1,"time":1282641456,"description":"[IMG]http://i1022.photobucket.com/albums/af345/bhoottt/1_1000-2.jpg[/IMG]\n\n\n[IMG]http://i1022.photobucket.com/albums/af345/bhoottt/WWEMondayNightRaw-23rdAug2010-XvidVAMPIREROCKs_20100824-12284328.jpg[/IMG]\n[IMG]http://i1022.photobucket.com/albums/af345/bhoottt/WWEMondayNightRaw-23rdAug2010-XvidVAMPIREROCKs_20100824-12280142.jpg[/IMG]\n[IMG]http://i1022.photobucket.com/albums/af345/bhoottt/WWEMondayNightRaw-23rdAug2010-XvidVAMPIREROCKs_20100824-12301907.jpg[/IMG]\n[IMG]http://i1022.photobucket.com/albums/af345/bhoottt/WWEMondayNightRaw-23rdAug2010-XvidVAMPIREROCKs_20100824-12262042.jpg[/IMG]\n[IMG]http://i1022.photobucket.com/albums/af345/bhoottt/WWEMondayNightRaw-23rdAug2010-XvidVAMPIREROCKs_20100824-12253617.jpg[/IMG]\n[IMG]http://i1022.photobucket.com/albums/af345/bhoottt/WWEMondayNightRaw-23rdAug2010-XvidVAMPIREROCKs_20100824-12304625.jpg[/IMG]\n[IMG]http://i1022.photobucket.com/albums/af345/bhoottt/WWEMondayNightRaw-23rdAug2010-XvidVAMPIREROCKs_20100824-12271367.jpg[/IMG]\n\nVideo\nID                               : 0\nFormat                           : MPEG-4 Visual\nFormat profile                   : Advanced Simple@L5\nFormat settings, BVOP            : Yes\nFormat settings, QPel            : No\nFormat settings, GMC             : No warppoints\nFormat settings, Matrix          : Default (H.263)\nCodec ID                         : XVID\nCodec ID/Hint                    : XviD\nDuration                         : 1h 28mn\nBit rate                         : 695 Kbps\nWidth                            : 624 pixels\nHeight                           : 360 pixels\nDisplay aspect ratio             : 16:9\nFrame rate                       : 25.000 fps\nResolution                       : 8 bits\nColorimetry                      : 4:2:0\nScan type                        : Progressive\nBits/(Pixel*Frame)               : 0.124\nStream size                      : 441 MiB (91%)\nWriting library                  : XviD 1.2.1 (UTC 2008-12-04)\n\nAudio\nID                               : 1\nFormat                           : MPEG Audio\nFormat version                   : Version 2\nFormat profile                   : Layer 3\nMode                             : Joint stereo\nFormat_Settings_ModeExtension    : MS Stereo\nCodec ID                         : 55\nCodec ID/Hint                    : MP3\nDuration                         : 2h 57mn\nBit rate mode                    : Variable\nBit rate                         : 57.7 Kbps\nNominal bit rate                 : 60.0 Kbps\nChannel(s)                       : 2 channels\nSampling rate                    : 24.0 KHz\nStream size                      : 36.6 MiB (8%)\nAlignment                        : Aligned on interleaves\nInterleave, duration             : 24 ms (0.60 video frame)\nInterleave, preload duration     : 495 ms\nWriting library                  : LAME3.98r\nEncoding settings                : -m j -V 4 -q 2 -lowpass 11 --abr 60\n\n","torrent":{"xt":"urn:btih:d46618367be825dfbbb8e0a0cba3553f97d2ff99","amp;dn":"WWE+Monday+Night+Raw+-+23rd+Aug+2010+-+Xvid+%5D%5BVAMPIRE+ROCK%5C%27s%5D%5BB","amp;tr":["udp%3A%2F%2Ftracker.openbittorrent.com%3A80","udp%3A%2F%2Fopen.demonii.com%3A1337","udp%3A%2F%2Ftracker.coppersurfer.tk%3A6969","udp%3A%2F%2Fexodus.desync.com%3A6969"],"infoHash":"d46618367be825dfbbb8e0a0cba3553f97d2ff99","infoHashBuffer":{"type":"Buffer","data":[212,102,24,54,123,232,37,223,187,184,224,160,203,163,85,63,151,210,255,153]},"announce":[],"urlList":[]}}